<?xml version="1.0" standalone="no"?>
<!DOCTYPE svg PUBLIC "-//W3C//DTD SVG 20010904//EN"
 "http://www.w3.org/TR/2001/REC-SVG-20010904/DTD/svg10.dtd">
<svg version="1.0" xmlns="http://www.w3.org/2000/svg"
 width="1080.000000pt" height="1080.000000pt" viewBox="0 0 1080.000000 1080.000000"
 preserveAspectRatio="xMidYMid meet">

<g transform="translate(0.000000,1080.000000) scale(0.100000,-0.100000)"
fill="#000000" stroke="none">
<path d="M5166 9455 c-3 -9 -6 -40 -6 -67 0 -28 -5 -79 -10 -112 -6 -34 -15
-133 -20 -221 -6 -88 -15 -196 -20 -239 -6 -44 -8 -82 -4 -85 11 -11 145 -17
154 -6 5 5 14 66 21 134 l13 123 125 -6 c69 -4 146 -8 171 -9 l45 -2 0 59 c0
57 -1 60 -29 67 -16 5 -89 11 -163 15 -73 4 -136 11 -139 16 -4 6 0 52 7 104
l13 94 55 0 c30 0 113 -8 183 -17 89 -11 132 -13 139 -6 5 5 13 35 16 65 l5
54 -103 12 c-57 7 -169 17 -249 22 -80 6 -157 12 -171 16 -19 4 -28 1 -33 -11z"/>
<path d="M5846 9194 c-3 -9 -6 -29 -6 -44 0 -16 -4 -31 -9 -35 -6 -3 -13 -27
-16 -53 -3 -26 -12 -65 -20 -87 -8 -22 -17 -58 -20 -80 -4 -22 -13 -58 -20
-80 -7 -22 -16 -68 -20 -101 l-7 -62 44 -7 c23 -3 55 -8 69 -11 23 -4 27 0 42
48 9 29 27 94 38 143 35 148 62 177 174 185 l70 5 13 59 c7 32 10 61 6 65 -10
10 -132 5 -146 -6 -7 -5 -21 -13 -31 -16 -15 -6 -18 -2 -15 24 3 30 0 32 -52
50 -69 22 -86 23 -94 3z"/>
<path d="M4024 9157 c-32 -19 -66 -49 -95 -84 l-26 -31 -17 35 c-16 34 -17 35
-41 19 -13 -9 -34 -16 -45 -16 -12 0 -30 -5 -41 -10 -21 -12 -20 -28 6 -105 7
-22 25 -80 41 -130 15 -49 31 -94 35 -99 5 -6 9 -21 9 -35 0 -15 6 -38 14 -53
8 -14 17 -45 21 -67 7 -41 7 -41 51 -41 51 0 114 23 114 41 0 16 -37 132 -58
183 -10 23 -16 68 -17 116 0 68 3 81 23 103 12 13 40 29 62 36 22 6 41 15 44
19 7 12 -36 132 -48 132 -6 -1 -20 -6 -32 -13z"/>
<path d="M6369 9011 c-48 -10 -132 -72 -159 -119 -96 -162 -44 -338 125 -425
54 -27 69 -30 155 -31 79 -1 102 3 135 21 54 29 108 88 134 145 31 69 29 173
-4 237 -28 56 -101 124 -162 152 -47 21 -168 32 -224 20z m198 -158 c44 -33
56 -57 55 -120 0 -57 -20 -99 -66 -142 -36 -34 -129 -35 -175 -2 -34 24 -71
87 -71 120 0 25 47 126 66 142 26 22 89 38 124 32 19 -3 50 -16 67 -30z"/>
<path d="M3365 8914 c-93 -32 -153 -82 -193 -159 -35 -67 -37 -169 -5 -235 32
-68 91 -130 147 -156 142 -66 372 18 430 158 l16 37 -46 21 c-26 11 -50 20
-54 20 -3 0 -21 -18 -39 -40 -39 -49 -116 -90 -168 -90 -38 0 -119 43 -109 58
5 8 24 18 216 112 80 39 149 75 154 80 16 16 -16 79 -64 128 -76 76 -185 102
-285 66z m155 -134 c17 -12 29 -27 27 -34 -3 -12 -224 -125 -244 -126 -32 0
-14 96 25 133 64 61 131 71 192 27z"/>
<path d="M4561 8854 c-24 -20 -31 -34 -31 -62 1 -61 64 -119 118 -107 76 16
106 122 49 171 -39 33 -95 33 -136 -2z"/>
<path d="M6979 8743 c-14 -21 -29 -45 -34 -54 -6 -9 -36 -54 -67 -101 -32 -46
-58 -88 -58 -93 0 -5 -7 -15 -16 -24 -22 -23 -93 -134 -94 -146 0 -14 95 -85
114 -85 7 0 53 58 100 130 48 71 100 139 116 150 58 41 161 15 195 -50 29 -56
22 -72 -122 -291 l-62 -94 27 -22 c15 -12 36 -25 47 -29 10 -4 25 -13 33 -21
12 -12 17 -11 34 4 11 10 32 38 46 63 14 25 38 61 54 81 15 20 28 39 28 42 0
3 16 28 35 56 19 29 42 77 52 107 16 52 16 57 -2 110 -13 39 -32 67 -66 99
-57 53 -78 62 -162 71 l-64 6 1 35 c1 25 -5 39 -19 47 -11 6 -31 19 -44 29
-34 25 -45 22 -72 -20z"/>
<path d="M2781 8568 c-76 -29 -162 -116 -185 -187 -34 -106 -14 -208 59 -289
63 -69 114 -92 212 -92 70 0 88 4 143 32 100 50 190 155 190 222 0 27 -8 32
-73 41 -44 7 -45 6 -52 -23 -13 -59 -121 -142 -185 -142 -63 0 -118 50 -72 67
9 3 38 22 64 42 38 29 167 122 246 177 14 11 14 14 -3 40 -76 117 -214 162
-344 112z m146 -119 c24 -11 43 -24 43 -29 0 -4 -33 -31 -72 -59 -40 -28 -93
-65 -117 -82 -53 -38 -64 -29 -58 49 4 61 29 94 92 123 52 23 61 23 112 -2z"/>
<path d="M7695 8370 c-21 -22 -43 -40 -47 -40 -5 0 -22 10 -39 22 l-30 22 -34
-39 c-19 -21 -35 -42 -35 -46 0 -4 11 -14 25 -23 14 -9 25 -24 25 -33 0 -9
-41 -58 -90 -109 -89 -92 -130 -158 -130 -209 0 -40 35 -108 76 -147 21 -21
44 -38 50 -38 6 0 17 -7 24 -15 7 -8 23 -15 35 -15 18 0 25 7 30 30 4 16 11
32 16 35 16 11 9 44 -11 50 -30 10 -69 61 -63 85 7 27 173 210 190 210 7 0 34
-19 59 -42 l45 -41 34 33 c19 19 35 41 35 49 0 8 -21 33 -47 56 l-47 42 47 55
47 56 -51 46 c-28 25 -57 46 -63 46 -7 0 -30 -18 -51 -40z"/>
<path d="M2265 8131 c-64 -29 -129 -108 -145 -178 -7 -32 -14 -59 -15 -61 -1
-1 -15 2 -30 8 -24 9 -31 7 -62 -22 -63 -61 -66 -55 69 -186 184 -177 276
-262 285 -262 17 0 93 86 93 104 0 11 -48 65 -114 128 -76 72 -118 120 -126
143 -24 72 18 155 87 174 55 16 101 -12 233 -138 l115 -109 52 56 c29 31 53
59 53 62 0 7 -205 198 -259 241 -78 61 -157 75 -236 40z"/>
<path d="M8296 7795 c-25 -19 -48 -35 -51 -35 -2 0 -62 -39 -132 -87 -70 -48
-148 -100 -173 -116 -148 -98 -180 -122 -180 -137 0 -9 15 -36 33 -60 17 -24
46 -65 62 -92 70 -111 208 -308 215 -308 13 0 84 49 92 64 4 8 -25 58 -72 127
-44 63 -83 121 -87 129 -3 8 -15 26 -25 39 -27 35 -22 58 15 77 17 9 47 28 66
42 l34 25 38 -44 c21 -24 39 -49 39 -55 0 -6 16 -32 35 -57 19 -25 35 -49 35
-52 0 -3 10 -19 22 -35 23 -32 48 -38 70 -17 7 6 25 18 40 26 15 8 24 19 21
25 -4 6 -47 71 -97 145 l-89 134 32 26 c17 14 49 36 70 48 l39 22 68 -102 c37
-56 71 -103 76 -105 4 -2 8 -8 8 -13 0 -23 54 -89 73 -89 20 0 97 47 97 59 0
17 -299 446 -312 449 -8 2 -36 -13 -62 -33z"/>
<path d="M1597 7753 c-50 -49 -52 -99 -6 -137 43 -37 74 -33 120 13 50 50 51
81 5 127 -44 44 -73 44 -119 -3z"/>
<path d="M1830 7632 c0 -5 -13 -25 -30 -43 -39 -44 -47 -69 -27 -83 24 -16
109 -76 182 -126 35 -25 87 -61 115 -80 28 -19 71 -50 96 -68 35 -27 48 -31
59 -22 26 22 75 107 70 121 -5 12 -152 118 -179 128 -5 2 -18 12 -28 21 -32
29 -212 148 -235 155 -13 3 -23 2 -23 -3z"/>
<path d="M1632 7348 c-7 -7 -12 -20 -12 -29 0 -9 -7 -22 -15 -29 -21 -17 -19
-50 5 -75 l20 -22 -39 -18 c-49 -22 -81 -55 -115 -120 -22 -41 -26 -63 -26
-128 0 -88 13 -127 61 -181 102 -116 294 -122 401 -12 56 58 78 113 78 195 0
70 1 72 23 66 12 -4 37 -22 55 -41 28 -29 32 -41 32 -85 0 -68 -30 -127 -102
-201 -32 -33 -58 -62 -58 -66 0 -16 62 -82 77 -82 8 0 43 29 78 64 71 73 125
170 144 264 12 54 12 68 -3 115 -20 63 -63 118 -120 155 -33 21 -462 242 -470
242 -1 0 -7 -5 -14 -12z m178 -248 c44 -23 80 -80 80 -129 0 -37 -37 -103 -75
-133 -23 -18 -42 -23 -87 -23 -53 1 -61 4 -98 40 -37 36 -40 43 -40 92 0 40 6
64 25 94 49 76 119 98 195 59z"/>
<path d="M8530 7074 c-47 -20 -89 -40 -94 -45 -6 -5 -16 -9 -24 -9 -8 0 -30
-7 -50 -16 -21 -9 -57 -25 -82 -36 -25 -11 -58 -26 -75 -33 -16 -8 -42 -17
-57 -21 -48 -11 -51 -26 -22 -98 15 -36 32 -66 37 -66 5 0 25 7 45 16 21 9 57
25 82 36 25 11 59 26 75 33 50 24 123 38 158 31 39 -7 73 -40 97 -93 15 -34
15 -42 2 -76 -18 -44 -43 -61 -177 -117 -55 -23 -117 -49 -137 -58 -21 -9 -38
-23 -38 -31 0 -12 36 -113 46 -129 3 -5 101 32 168 62 28 13 86 38 129 56 132
56 181 133 162 258 -10 74 -78 170 -137 195 -10 5 -7 11 10 23 12 9 22 22 22
29 0 12 -47 125 -52 125 -2 -1 -41 -17 -88 -36z"/>
<path d="M1354 6585 c-35 -16 -104 -88 -104 -109 0 -7 -7 -27 -15 -42 -16 -31
-21 -139 -6 -148 5 -3 11 -17 14 -32 4 -24 3 -26 -25 -20 -18 4 -30 1 -32 -7
-2 -6 -11 -34 -20 -62 -22 -67 -21 -74 12 -81 25 -6 92 -24 219 -60 29 -8 77
-21 105 -29 29 -8 76 -21 105 -30 93 -27 97 -25 118 95 l6 36 -73 22 c-41 12
-80 22 -88 22 -43 2 -155 50 -186 80 -31 30 -34 38 -34 89 0 48 4 61 28 88 40
43 73 47 167 22 44 -11 105 -27 135 -34 30 -7 68 -18 83 -24 16 -6 32 -11 37
-11 10 0 53 140 45 148 -6 6 -23 11 -155 48 -186 53 -282 64 -336 39z"/>
<path d="M8560 6347 c-101 -40 -180 -150 -180 -252 0 -65 28 -137 71 -185 39
-44 40 -45 17 -51 -20 -4 -23 -11 -22 -50 1 -79 10 -99 46 -99 17 0 57 6 87
14 74 19 152 35 226 46 33 6 87 16 120 24 122 29 162 38 224 46 80 12 88 19
73 67 -7 21 -13 52 -14 68 -3 29 -4 30 -51 27 -27 -2 -61 -8 -75 -14 -15 -5
-53 -13 -84 -17 -64 -8 -68 -3 -43 45 49 95 -28 270 -145 329 -65 33 -169 34
-250 2z m210 -158 c45 -25 70 -74 70 -132 -1 -91 -66 -147 -170 -147 -50 0
-61 4 -94 33 -87 76 -74 184 29 248 41 26 117 25 165 -2z"/>
<path d="M946 5897 c-14 -67 -26 -187 -31 -297 -3 -69 -8 -148 -11 -176 l-5
-50 63 -12 c35 -7 146 -17 248 -22 102 -6 210 -15 241 -20 30 -6 85 -10 121
-10 l65 0 6 68 c4 37 7 104 7 148 0 45 4 103 9 130 5 27 12 85 16 130 l7 81
-58 6 c-32 3 -60 4 -63 1 -6 -6 -19 -104 -34 -259 l-12 -130 -80 3 c-44 2 -84
7 -88 11 -4 4 -3 79 2 167 5 87 7 162 4 166 -6 11 -111 10 -117 0 -3 -5 -8
-62 -11 -128 -3 -65 -8 -138 -11 -161 l-5 -43 -47 0 c-26 0 -64 5 -85 11 l-38
10 6 82 c3 45 11 130 17 189 6 59 10 109 7 112 -2 2 -30 6 -61 9 -54 5 -58 4
-62 -16z"/>
<path d="M8477 5253 c-4 -37 -7 -95 -7 -128 0 -33 -4 -87 -9 -120 -5 -33 -13
-101 -16 -152 -8 -104 -11 -99 80 -105 l40 -3 6 60 c3 33 12 122 19 198 l13
137 76 0 c42 0 82 -4 90 -9 12 -7 13 -32 6 -138 -5 -70 -9 -144 -9 -163 l-1
-35 55 0 c54 0 54 0 62 35 4 19 12 90 17 157 5 68 12 127 16 133 8 13 51 13
115 -1 l52 -11 -5 -71 c-2 -40 -10 -123 -17 -185 -8 -67 -9 -116 -4 -121 5 -5
33 -11 62 -13 47 -5 53 -3 56 16 23 113 49 504 35 521 -9 13 -185 31 -439 47
-96 5 -200 12 -231 15 l-56 5 -6 -69z"/>
<path d="M1595 4938 c-73 -92 -217 -248 -230 -248 -7 0 -70 38 -140 85 -70 47
-130 84 -132 81 -3 -3 0 -20 5 -38 6 -18 14 -54 18 -81 6 -43 12 -51 69 -97
35 -28 66 -50 70 -50 4 0 26 -16 49 -35 24 -19 48 -35 54 -35 6 0 16 -9 21
-19 15 -28 -3 -38 -79 -46 -36 -4 -87 -13 -115 -20 -27 -8 -74 -17 -104 -20
-30 -3 -70 -12 -88 -20 -29 -12 -33 -17 -24 -34 6 -11 11 -37 11 -58 0 -21 4
-43 8 -49 8 -13 94 -4 202 21 74 16 142 30 250 49 187 34 256 48 286 61 31 13
33 16 27 52 -12 89 -17 98 -49 95 -135 -14 -127 -15 -167 20 l-39 33 56 70
c31 39 72 88 91 110 39 46 41 53 20 121 -8 27 -15 61 -15 77 0 15 -3 27 -7 27
-5 -1 -26 -24 -48 -52z"/>
<path d="M8424 4668 c-4 -6 -13 -37 -19 -69 -14 -64 -10 -72 35 -82 14 -3 50
-13 80 -21 30 -9 82 -23 115 -32 33 -9 72 -25 88 -36 75 -53 75 -159 1 -217
-33 -26 -61 -26 -155 -1 -41 11 -94 25 -119 31 -25 6 -65 17 -89 25 -24 8 -45
13 -46 12 -3 -3 -23 -88 -32 -129 -4 -23 -1 -27 24 -32 15 -3 60 -15 98 -26
207 -60 261 -72 299 -66 118 18 196 119 196 255 0 38 -4 72 -10 75 -5 3 -10
15 -10 26 0 17 4 20 29 14 25 -5 29 -3 34 22 3 15 11 47 18 71 16 51 11 57
-60 67 -25 4 -50 10 -56 15 -5 4 -30 12 -55 18 -25 6 -81 20 -125 33 -44 12
-103 27 -132 33 -28 6 -55 15 -59 19 -11 11 -42 8 -50 -5z"/>
<path d="M1663 4278 c-6 -7 -13 -30 -17 -51 -4 -21 -9 -44 -12 -51 -3 -7 10
-17 30 -24 20 -7 49 -30 66 -50 29 -34 31 -42 28 -102 -3 -53 -8 -70 -28 -90
-39 -39 -90 -60 -145 -60 -41 0 -57 5 -87 30 -56 46 -69 111 -42 206 4 17 -4
30 -41 59 -46 38 -46 38 -66 18 -34 -33 -48 -118 -33 -199 16 -91 43 -142 104
-197 106 -95 227 -101 362 -18 20 12 52 45 70 74 31 48 33 59 36 148 4 89 1
103 -23 158 -48 105 -167 193 -202 149z"/>
<path d="M8079 4085 c-70 -45 -161 -182 -181 -270 -19 -80 -19 -112 -3 -167
26 -91 66 -122 337 -258 130 -66 241 -120 247 -120 14 0 61 82 61 108 0 12 -9
26 -20 32 -27 14 -25 27 5 34 38 10 93 64 123 120 22 44 26 63 26 136 0 98
-20 147 -81 201 -113 99 -259 97 -365 -3 -68 -66 -101 -140 -96 -218 1 -33 2
-60 0 -60 -12 0 -61 33 -82 55 -20 22 -25 36 -25 83 0 48 6 67 38 119 35 58
68 93 113 119 18 11 17 14 -16 63 -19 28 -37 51 -40 50 -3 0 -21 -11 -41 -24z
m396 -295 c66 -41 84 -125 41 -200 -32 -57 -69 -80 -131 -80 -114 0 -178 106
-125 210 21 40 70 84 105 93 29 7 76 -3 110 -23z"/>
<path d="M1921 3715 c-29 -19 -54 -35 -56 -35 -9 0 -145 -87 -184 -119 -24
-19 -52 -53 -62 -75 -20 -44 -26 -141 -9 -151 6 -3 10 -16 10 -28 0 -12 12
-40 25 -62 34 -55 155 -175 177 -175 10 0 30 18 45 41 l26 40 -62 61 c-70 68
-81 89 -81 154 0 42 24 84 49 84 5 0 31 -35 57 -77 78 -128 131 -173 201 -173
98 0 163 62 163 156 0 95 -65 198 -146 229 -37 14 -43 20 -30 27 37 21 -4 138
-49 138 -11 0 -44 -16 -74 -35z m102 -195 c35 -21 67 -75 67 -115 0 -32 -33
-65 -65 -65 -30 0 -87 57 -116 118 l-22 45 24 18 c31 24 70 24 112 -1z"/>
<path d="M7870 3369 c-22 -28 -40 -58 -40 -67 0 -10 17 -28 38 -42 20 -14 67
-46 103 -72 36 -27 69 -48 73 -48 4 0 26 -15 49 -32 23 -18 49 -37 58 -43 9
-5 43 -29 77 -51 l60 -42 41 59 c22 33 38 65 35 72 -4 11 -378 276 -430 305
-22 11 -26 9 -64 -39z"/>
<path d="M2251 3234 c-26 -44 -26 -46 5 -75 34 -31 46 -63 35 -92 -7 -19 -186
-176 -211 -185 -4 -2 -23 17 -41 42 -38 54 -60 57 -108 16 l-34 -29 43 -56 44
-57 -47 -40 c-26 -22 -47 -46 -47 -54 0 -19 79 -104 96 -104 8 0 32 16 54 37
l41 36 33 -32 33 -32 43 39 43 38 -24 33 -24 32 40 37 c22 21 67 59 100 86 75
60 99 90 115 142 18 62 -8 132 -74 201 -62 63 -86 67 -115 17z"/>
<path d="M7700 3138 c-36 -40 -42 -53 -34 -66 6 -9 51 -53 100 -97 134 -121
139 -128 139 -203 0 -63 -1 -65 -44 -103 -70 -63 -96 -53 -256 96 -59 55 -113
104 -121 108 -10 6 -30 -7 -66 -41 -61 -59 -69 -43 93 -199 130 -124 193 -163
264 -163 114 0 245 134 245 250 0 20 1 20 22 6 34 -24 42 -20 89 35 l43 52
-74 69 c-158 147 -340 308 -347 307 -5 -1 -28 -23 -53 -51z"/>
<path d="M8432 3014 c-26 -18 -52 -65 -52 -93 0 -11 12 -33 26 -50 20 -25 34
-31 64 -31 50 0 100 53 100 106 0 69 -80 109 -138 68z"/>
<path d="M2490 2850 c-56 -27 -77 -46 -101 -92 -39 -77 -15 -160 85 -298 75
-104 87 -144 56 -183 -23 -29 -58 -35 -105 -17 -38 15 -122 104 -151 162 -23
45 -28 49 -52 43 -27 -7 -92 -43 -92 -51 0 -13 46 -94 73 -129 115 -149 280
-220 385 -166 84 43 116 92 114 175 0 65 -20 116 -71 186 -48 65 -101 161
-101 183 0 22 44 57 72 57 41 0 90 -26 129 -67 45 -48 97 -126 105 -159 11
-45 60 -44 111 0 l28 25 -34 68 c-42 82 -161 205 -237 246 -72 38 -154 45
-214 17z"/>
<path d="M7180 2611 c-30 -9 -66 -23 -80 -31 -47 -25 -133 -115 -151 -158 -33
-77 -25 -92 54 -92 39 0 43 3 66 44 26 50 80 91 143 107 35 10 50 9 81 -4 20
-9 37 -20 37 -25 0 -10 -48 -51 -122 -104 -168 -119 -207 -148 -213 -158 -11
-17 87 -111 142 -136 103 -48 233 -19 327 73 152 148 94 413 -107 483 -68 24
-105 24 -177 1z m231 -280 c25 -83 -52 -171 -150 -171 -34 0 -56 6 -72 20
l-24 20 35 30 c19 16 53 42 75 57 22 15 55 40 73 55 18 15 37 28 42 28 5 0 14
-17 21 -39z"/>
<path d="M3284 2314 c-35 -55 -82 -138 -121 -214 -15 -30 -40 -73 -54 -95 -15
-22 -46 -78 -70 -125 -24 -47 -46 -87 -49 -90 -13 -12 -50 -82 -50 -95 0 -16
107 -78 125 -72 7 3 33 43 59 89 26 45 51 90 56 98 5 8 37 65 72 125 216 381
210 367 154 390 -19 8 -37 19 -41 25 -16 25 -52 9 -81 -36z"/>
<path d="M6604 2265 c-71 -22 -124 -55 -175 -107 -41 -42 -49 -57 -47 -81 2
-25 10 -32 41 -43 45 -16 66 -8 86 29 31 58 160 94 240 66 64 -22 43 -42 -131
-127 -90 -43 -171 -82 -181 -85 -45 -17 -29 -72 43 -143 26 -26 67 -55 91 -65
102 -41 234 -12 319 71 70 68 92 118 92 204 0 204 -185 342 -378 281z m242
-290 c9 -37 -28 -108 -70 -134 -48 -30 -124 -31 -166 -1 -16 12 -30 27 -30 33
0 12 222 125 247 126 7 1 15 -10 19 -24z"/>
<path d="M3540 2164 c-16 -37 -30 -72 -30 -79 0 -7 -7 -18 -15 -25 -8 -7 -15
-17 -15 -22 0 -6 -15 -43 -34 -82 -71 -150 -106 -227 -106 -236 0 -7 -17 -44
-41 -90 -23 -41 -49 -104 -46 -107 10 -10 122 -63 133 -63 7 0 16 10 20 23 4
12 29 68 55 125 27 57 49 105 49 107 0 3 15 37 34 77 102 217 166 362 166 372
0 10 -112 66 -132 66 -4 0 -21 -30 -38 -66z"/>
<path d="M3815 2107 c-2 -7 -11 -34 -19 -60 -9 -26 -16 -56 -16 -67 0 -10 -4
-21 -9 -24 -5 -4 -12 -25 -16 -49 -4 -23 -13 -58 -20 -77 -7 -19 -23 -69 -35
-110 -12 -41 -26 -90 -32 -108 -12 -41 -7 -47 52 -60 25 -6 54 -13 66 -17 19
-6 23 1 44 67 12 40 29 92 36 116 8 23 14 51 14 62 0 28 53 102 88 123 49 28
100 18 155 -32 22 -20 27 -33 27 -72 0 -26 -7 -60 -15 -75 -8 -16 -15 -43 -15
-60 0 -16 -5 -35 -10 -40 -6 -6 -17 -37 -26 -70 -29 -106 -32 -97 34 -118 68
-21 96 -19 100 9 2 11 7 29 12 40 5 11 14 38 19 60 6 22 20 72 31 110 45 145
46 192 10 265 -23 45 -45 65 -100 89 -66 28 -136 35 -192 17 l-48 -14 0 34 c0
29 -4 34 -27 39 -16 4 -45 12 -66 20 -29 10 -39 11 -42 2z"/>
<path d="M6156 2075 c-15 -8 -37 -15 -47 -15 -28 0 -34 -25 -16 -68 20 -48 77
-252 77 -275 0 -43 -38 -93 -89 -116 -55 -26 -53 -19 -29 -115 9 -36 11 -38
39 -32 38 7 86 43 115 85 l23 34 10 -26 c8 -20 18 -27 36 -27 32 0 115 37 115
51 0 9 -40 137 -65 209 -7 19 -19 58 -27 85 -22 72 -60 198 -64 213 -5 16 -43
15 -78 -3z"/>
<path d="M5420 1884 c-58 -92 33 -189 130 -139 16 8 34 24 40 34 17 32 12 86
-11 115 -18 23 -28 26 -79 26 -56 0 -59 -1 -80 -36z"/>
<path d="M4797 1833 c-4 -37 -7 -90 -7 -118 0 -80 5 -78 -181 -67 -90 6 -167
8 -170 6 -12 -7 -22 -105 -12 -115 5 -5 65 -12 133 -15 69 -3 142 -10 163 -15
l37 -10 0 -82 c0 -124 8 -119 -195 -102 -93 8 -179 16 -190 17 -17 3 -21 -4
-25 -50 -8 -76 0 -81 161 -93 74 -5 161 -14 194 -19 33 -5 88 -13 121 -16 l62
-6 12 68 c6 38 18 141 26 229 8 88 19 192 24 230 11 86 13 202 3 208 -5 2 -40
7 -79 11 l-71 7 -6 -68z"/>
</g>
</svg>
